<svg xmlns="http://www.w3.org/2000/svg" viewBox="0 0 248 74">
	<g id="letter">
		<path id="letter-s" class="letter letter-s" d="M32.86,47.32c-2.01-1.62-4.3-3.22-6.87-4.8-2.22-1.52-4.35-2.92-6.39-4.21-2.04-1.29-3.71-2.67-4.99-4.16-1.29-1.49-1.93-3.22-1.93-5.2,0-2.18.73-3.86,2.2-5.05,1.47-1.19,3.31-1.78,5.53-1.78,3.15,0,5.69.78,7.62,2.33,1.93,1.55,3.4,3.48,4.4,5.79,1,2.31,1.68,4.69,2.04,7.13h2.36c0-4.35.04-7.84.11-10.44.07-2.61.18-4.87.32-6.78h-2.36c-.5,3.76-1.97,4.82-4.4,3.17-1-.59-2.58-1.29-4.73-2.08s-4.73-1.19-7.73-1.19-5.96.51-8.65,1.53c-2.69,1.02-4.85,2.51-6.5,4.45-1.65,1.95-2.47,4.4-2.47,7.37,0,2.71.66,5.05,1.99,7.03,1.32,1.98,3.04,3.76,5.16,5.35,2.11,1.58,4.39,3.2,6.82,4.85,3.22,2.18,5.91,4.22,8.06,6.14,2.15,1.91,3.22,4.32,3.22,7.23,0,1.91-.41,3.43-1.24,4.55-.82,1.12-1.86,1.95-3.11,2.47-1.25.53-2.56.79-3.92.79-3.15,0-5.73-.78-7.73-2.33-2.01-1.55-3.53-3.69-4.56-6.43-1.04-2.74-1.81-5.92-2.31-9.55H.43c0,5.02-.04,9.04-.11,12.08-.07,3.04-.18,5.61-.32,7.72h2.36c.29-1.39.7-2.38,1.24-2.97.54-.59,1.16-.73,1.88-.4.79.27,1.56.59,2.31.99.75.4,1.59.83,2.52,1.29,1.22.53,2.61.96,4.19,1.29,1.57.33,3.33.49,5.26.49,3.58,0,6.86-.58,9.83-1.73,2.97-1.15,5.37-2.8,7.2-4.95,1.83-2.14,2.74-4.73,2.74-7.77,0-2.64-.61-4.93-1.83-6.88-1.22-1.95-2.83-3.73-4.83-5.35h0Z" />
		<path id="letter-t" class="letter letter-t" d="M76.79,67.72c-1.36,1.16-2.86,1.73-4.51,1.73s-3.04-.49-3.97-1.49c-.93-.99-1.4-2.67-1.4-5.05V23.52h13.75v-1.98h-13.75V0s-.05.02-.07.03c-1.69,1.76-3.64,3.17-5.86,4.2-2.33,1.08-4.86,1.83-7.6,2.26v15.05h-9.45v1.98h9.45v33.36c0,3.5.27,6.3.81,8.41.54,2.11,1.59,3.93,3.17,5.44,1.22,1.06,2.67,1.87,4.35,2.42,1.68.56,3.74.84,6.18.84,4.08,0,7.25-1.07,9.5-3.22,2.26-2.14,3.92-4.83,4.99-8.07l-1.93-.79c-1.07,2.71-2.29,4.64-3.65,5.79h0Z" />
		<path id="letter-e" class="letter letter-e" d="M100.24,42.03h31.22c0-7.65-1.79-13.23-5.37-16.73-3.58-3.5-8.52-5.25-14.82-5.25-4.94,0-9.34,1.07-13.21,3.22-3.87,2.15-6.89,5.26-9.07,9.35-2.19,4.09-3.28,9.14-3.28,15.15,0,5.68,1.04,10.48,3.11,14.4,2.08,3.93,4.98,6.88,8.7,8.86,3.72,1.98,8.02,2.97,12.89,2.97,3.87,0,7.23-.73,10.1-2.18,2.86-1.45,5.21-3.32,7.04-5.59,1.83-2.28,3.13-4.57,3.92-6.88l-2.04-.79c-1.36,2.31-2.87,4.09-4.51,5.35-1.65,1.25-3.33,2.11-5.05,2.57-1.72.46-3.4.69-5.05.69-2.43,0-4.8-.69-7.09-2.08-2.29-1.39-4.15-3.56-5.59-6.53-1.43-2.97-2.15-6.73-2.15-11.28,0-.99.02-1.98.05-2.97.03-.8.1-1.56.19-2.28h0ZM104.11,26.54c2-2.94,4.37-4.4,7.09-4.4,2,0,3.63.83,4.89,2.47,1.25,1.65,2.17,3.84,2.74,6.58.57,2.74.79,5.73.64,8.96h-19.05c.54-6.25,1.77-10.79,3.69-13.61h0Z" />
		<path id="letter-l" class="letter letter-l" d="M158.63,64.8V0s-.05.02-.07.03c-1.69,1.76-3.65,3.17-5.86,4.2-2.33,1.08-4.86,1.83-7.6,2.26v58.31c0,2.77-.56,4.65-1.66,5.64-1.11.99-2.99,1.49-5.64,1.49v2.08c1.36-.07,3.42-.15,6.18-.25,2.76-.1,5.46-.15,8.11-.15s5.39.05,8,.15c2.61.1,4.56.18,5.85.25v-2.08c-2.65,0-4.53-.49-5.64-1.49-1.11-.99-1.66-2.87-1.66-5.64Z" />
		<path id="letter-o" class="letter letter-o" d="M210.34,22.78c-3.83-1.81-8.22-2.72-13.16-2.72s-9.34.91-13.21,2.72c-3.87,1.82-6.91,4.7-9.13,8.66-2.22,3.96-3.33,9.17-3.33,15.64s1.11,11.68,3.33,15.64c2.22,3.96,5.26,6.83,9.13,8.61,3.87,1.78,8.27,2.67,13.21,2.67s9.32-.89,13.16-2.67c3.83-1.78,6.87-4.65,9.13-8.61,2.26-3.96,3.38-9.17,3.38-15.64s-1.13-11.68-3.38-15.64c-2.25-3.96-5.3-6.84-9.13-8.66ZM205.35,66.18c-2.15,3.89-4.87,5.84-8.16,5.84s-6.1-1.95-8.22-5.84c-2.11-3.89-3.17-10.26-3.17-19.1s1.06-15.23,3.17-19.15c2.11-3.93,4.85-5.89,8.22-5.89s6.01,1.96,8.16,5.89c2.15,3.93,3.22,10.31,3.22,19.15s-1.07,15.21-3.22,19.1Z" />
	</g>
	<g id="shine">
		<path id="shine-1" class="shine shine-1" d="M243.34,15.88h0c-1.48-.42-2.9-.94-4.25-1.58-3.83-1.82-6.87-4.7-9.13-8.66-.94-1.66-1.69-3.54-2.24-5.64h0s0,0,0,0c-.55,2.1-1.29,3.98-2.24,5.64-2.25,3.96-5.3,6.84-9.13,8.66-1.35.64-2.76,1.16-4.25,1.58h0s0,0,0,0c1.48.41,2.9.94,4.25,1.57,3.83,1.82,6.87,4.7,9.13,8.66.95,1.66,1.69,3.54,2.24,5.64h0s0,0,0,0c.55-2.1,1.29-3.98,2.24-5.64,2.26-3.96,5.3-6.84,9.13-8.66,1.35-.64,2.76-1.16,4.25-1.57h0Z" />
		<path id="shine-2" class="shine shine-2" d="M248,4.47c-.42-.12-.82-.26-1.2-.44-1.08-.51-1.93-1.32-2.57-2.44-.27-.47-.48-1-.63-1.59-.15.59-.37,1.12-.63,1.59-.63,1.11-1.49,1.93-2.57,2.44-.38.18-.78.33-1.2.44h0c.42.12.82.27,1.2.44,1.08.51,1.93,1.32,2.57,2.44.27.47.48,1,.63,1.59.15-.59.36-1.12.63-1.59.64-1.11,1.49-1.93,2.57-2.44.38-.18.78-.33,1.2-.44h0Z" />
		<path id="shine-3" class="shine shine-3" d="M246.81,26.84c-1.08-.51-1.93-1.32-2.57-2.44-.27-.47-.48-1-.63-1.59-.15.59-.37,1.12-.63,1.59-.63,1.11-1.49,1.93-2.57,2.44-.38.18-.78.33-1.2.44h0c.42.12.82.27,1.2.44,1.08.51,1.93,1.32,2.57,2.44.27.47.48,1,.63,1.59.15-.59.36-1.12.63-1.59.64-1.11,1.49-1.93,2.57-2.44.38-.18.78-.33,1.2-.44h0c-.42-.12-.82-.27-1.2-.44Z" />
	</g>
</svg>
