<svg xmlns="http://www.w3.org/2000/svg" viewBox="0 0 15 16.48">
	<path d="m15,6.76v-2.98c0-1.26-1.02-2.28-2.28-2.28h-1.43v-.7c0-.43-.36-.8-.8-.8s-.8.36-.8.8v.7h-4.38v-.7c0-.43-.36-.8-.8-.8s-.8.36-.8.8v.7h-1.44C1.02,1.5,0,2.51,0,3.78v10.43c0,1.26,1.02,2.28,2.28,2.28h10.43c1.26,0,2.28-1.02,2.28-2.28v-7.45h.01ZM2.28,3.09h1.44v.69c0,.43.36.8.8.8s.8-.36.8-.8v-.69h4.37v.69c0,.43.36.8.8.8s.8-.36.8-.8v-.69h1.43c.38,0,.69.31.69.69v2.19H1.59v-2.19c0-.38.31-.69.69-.69Zm10.43,11.81H2.28c-.38,0-.69-.31-.69-.69v-6.65h11.81v6.65c0,.38-.31.69-.69.69Z" />
</svg>
