<?xml version="1.0" encoding="UTF-8"?>
<svg id="Layer_2" data-name="Layer 2" xmlns="http://www.w3.org/2000/svg" viewBox="0 0 23.51 19.51">
  <g id="Layer_1-2" data-name="Layer 1">
    <path d="M11.76,19.51s-.02,0-.02,0h0c-.09,0-.18-.02-.26-.05,0,0,0,0,0,0h0c-.06-.03-.12-.06-.18-.1,0,0,0,0,0,0h0s0,0,0,0h0s0,0,0,0c0,0,0,0,0,0h0s0,0,0,0h0s0,0,0,0t0,0s0,0,0,0h0s0,0,0,0c0,0,0,0,0,0,0,0,0,0,0,0h0s0,0,0,0h0s0,0,0,0c0,0,0,0,0,0h0s0,0,0,0h0s0,0,0,0h0s-.02-.02-.03-.03h0s0,0,0,0h0s0,0,0,0c0,0,0,0,0,0h0s0,0,0,0l-4-4c-.29-.29-.29-.77,0-1.06s.77-.29,1.06,0l2.72,2.72v-7.19c0-.41.34-.75.75-.75s.75.34.75.75v7.19l2.72-2.72c.29-.29.77-.29,1.06,0s.29.77,0,1.06l-4,4s0,0,0,0c0,0,0,0,0,0,0,0,0,0,0,0h0c-.07.07-.15.12-.24.16t0,0h0c-.08.03-.17.05-.26.05h0s-.02,0-.02,0ZM20.64,16.6c-.24,0-.47-.11-.61-.32-.24-.34-.16-.81.18-1.04.74-.52,1.29-1.26,1.58-2.12.29-.86.3-1.78.02-2.64-.27-.87-.81-1.61-1.54-2.15-.73-.54-1.6-.82-2.51-.82h-1.26c-.34,0-.64-.23-.73-.56-.27-1.06-.79-2.05-1.49-2.89-.71-.83-1.6-1.5-2.6-1.94-1-.44-2.1-.65-3.19-.61-1.09.04-2.17.33-3.14.84-.96.51-1.81,1.25-2.46,2.13-.64.88-1.09,1.91-1.28,2.98-.19,1.07-.14,2.19.15,3.25.29,1.05.83,2.04,1.55,2.85.27.31.25.78-.06,1.06-.31.28-.79.25-1.06-.06-.87-.99-1.52-2.18-1.87-3.44-.35-1.27-.42-2.62-.18-3.92.23-1.29.77-2.54,1.54-3.6.78-1.06,1.8-1.95,2.96-2.57C5.81.4,7.12.05,8.43,0c1.32-.05,2.65.21,3.85.74,1.2.53,2.29,1.34,3.14,2.35.72.85,1.28,1.85,1.63,2.92h.7c1.23,0,2.4.38,3.39,1.11.99.73,1.71,1.73,2.09,2.9.37,1.17.36,2.41-.03,3.58-.39,1.17-1.13,2.16-2.14,2.86-.13.09-.28.14-.43.14Z"/>
  </g>
</svg>