<svg viewBox="0 0 25 25" xmlns="http://www.w3.org/2000/svg">
	<path d="M12.3663 0.232634C5.73299 0.398862 0.499281 5.96748 0.663937 12.6641C0.79331 17.6509 3.93354 22.0678 8.57919 23.7657C9.17901 23.9794 9.82588 23.6588 10.0376 23.0533C10.0846 22.9346 10.1081 22.804 10.1081 22.6733V16.6773H7.87352C7.40308 16.6654 7.02672 16.2855 7.01496 15.8105V13.7089C7.01496 13.234 7.40308 12.8422 7.87352 12.8422H10.1081V9.83821C10.1081 6.5849 12.0252 4.80389 14.8126 4.80389C15.5888 4.80389 16.318 4.83951 16.859 4.87513C17.306 4.91075 17.6588 5.2907 17.6588 5.74189V7.51102C17.6588 7.98596 17.2707 8.36591 16.8002 8.37778H15.7182C14.1893 8.37778 13.907 9.13768 13.907 10.23V12.8541H16.3768C16.8473 12.8541 17.2236 13.2459 17.2236 13.7208C17.2236 13.7564 17.2236 13.792 17.2119 13.8277L16.9414 15.9174C16.8826 16.3448 16.5297 16.6654 16.0946 16.6773H13.8835V23.0652C13.8835 23.7063 14.4127 24.2288 15.0478 24.2288C15.1302 24.2288 15.2007 24.2169 15.2831 24.205C21.7634 22.7327 25.821 16.2261 24.3627 9.69573C23.116 4.05587 18.094 0.102027 12.3663 0.232634Z" />
</svg>
