<svg viewBox="0 0 21 21" xmlns="http://www.w3.org/2000/svg">
	<path d="M20.5739 10.229L20.5762 10.2268C19.626 9.9659 18.7183 9.63647 17.8561 9.23474C15.4044 8.09142 13.4555 6.27357 12.0117 3.77972C11.4065 2.73478 10.9288 1.55121 10.5777 0.229004L10.5762 0.230495L10.5747 0.229004C10.2228 1.55121 9.7458 2.73478 9.14066 3.77972C7.69682 6.27357 5.74793 8.09067 3.29627 9.23474C2.43406 9.63647 1.52635 9.9659 0.576172 10.2268L0.578449 10.229L0.576172 10.2312C1.52635 10.4921 2.43406 10.8215 3.29627 11.2233C5.74793 12.3666 7.69682 14.1844 9.14066 16.6783C9.7458 17.7232 10.2236 18.9068 10.5747 20.229L10.5762 20.2275L10.5777 20.229C10.9296 18.9068 11.4065 17.7232 12.0117 16.6783C13.4555 14.1844 15.4044 12.3673 17.8561 11.2233C18.7183 10.8215 19.626 10.4921 20.5762 10.2312L20.5739 10.229Z" />
</svg>
