<?xml version="1.0" encoding="UTF-8"?>
<svg id="Layer_2" data-name="Layer 2" xmlns="http://www.w3.org/2000/svg" viewBox="0 0 21.5 21.51">
  <g id="Layer_1-2" data-name="Layer 1">
    <path d="M.75,21.51c-.19,0-.38-.07-.53-.22-.29-.29-.29-.77,0-1.06l2.78-2.78v-8.19c0-.2.08-.39.22-.53L9.97,1.98c1.28-1.28,2.97-1.98,4.78-1.98s3.5.7,4.78,1.98c1.26,1.26,1.98,3,1.98,4.77s-.7,3.5-1.98,4.77l-2.67,2.67c-.04.06-.1.11-.16.16l-3.91,3.93c-.14.14-.33.22-.53.22H4.06l-2.78,2.78c-.15.15-.34.22-.53.22ZM5.56,17.01h6.38l2.49-2.5h-6.37l-2.5,2.5ZM4.5,9.57v6.38l2.72-2.72h0s7-7,7-7c.29-.29.77-.29,1.06,0s.29.77,0,1.06l-5.72,5.72h6.37l2.53-2.54s0,0,0,0c.98-.98,1.54-2.33,1.54-3.71s-.56-2.74-1.54-3.71c-.99-.99-2.31-1.54-3.71-1.54s-2.72.55-3.71,1.54l-6.53,6.53Z"/>
  </g>
</svg>