<svg viewBox="0 0 33 33" xmlns="http://www.w3.org/2000/svg">
	<path d="M27.7974 10.8956H29.3078C30.0621 10.8956 30.7856 11.1953 31.3191 11.7288C31.8525 12.2622 32.1521 12.9857 32.1521 13.7401V19.4289C32.1521 20.1834 31.8525 20.9069 31.3191 21.4403C30.7856 21.9738 30.0621 22.2734 29.3078 22.2734H27.7974C27.4509 25.0232 26.1128 27.5518 24.034 29.3849C21.9554 31.2179 19.2792 32.2292 16.5078 32.2289V29.3846C18.7709 29.3846 20.9414 28.4855 22.5417 26.8851C24.142 25.2848 25.0411 23.1144 25.0411 20.8512V12.3179C25.0411 10.0547 24.142 7.8842 22.5417 6.28389C20.9414 4.68358 18.7709 3.78453 16.5078 3.78453C14.2445 3.78453 12.074 4.68358 10.4737 6.28389C8.87344 7.8842 7.97439 10.0547 7.97439 12.3179V22.2734H3.70772C2.95333 22.2734 2.22983 21.9738 1.6964 21.4403C1.16296 20.9069 0.863281 20.1834 0.863281 19.4289V13.7401C0.863281 12.9857 1.16296 12.2622 1.6964 11.7288C2.22983 11.1953 2.95333 10.8956 3.70772 10.8956H5.21812C5.56265 8.1444 6.89999 5.61366 8.97884 3.7789C11.0577 1.94414 13.735 0.931641 16.5078 0.931641C19.2804 0.931641 21.9578 1.94414 24.0366 3.7789C26.1154 5.61366 27.4528 8.1444 27.7974 10.8956ZM3.70772 13.7401V19.4289H5.12995V13.7401H3.70772ZM27.8855 13.7401V19.4289H29.3078V13.7401H27.8855ZM10.4775 21.9676L11.9851 19.5499C13.3417 20.3965 14.9086 20.8455 16.5078 20.8455C18.1068 20.8455 19.6738 20.3965 21.0304 19.5499L22.5379 21.9676C20.7293 23.0969 18.6399 23.6956 16.5078 23.6956C14.3755 23.6956 12.2861 23.0969 10.4775 21.9676Z" />
</svg>
