<svg xmlns="http://www.w3.org/2000/svg" viewBox="0 0 15.57 14.59">
	<path d="m15.42,6.71l-1.21-1.21s0,0,0,0L9.37.66c-.88-.88-2.3-.88-3.18,0L.14,6.71c-.19.19-.19.5,0,.69.09.1.22.14.34.14s.25-.05.34-.14l.39-.39v6.19c0,.77.63,1.4,1.4,1.4h3.22s0,0,0,0h3.89s0,0,0,0h3.22c.77,0,1.4-.63,1.4-1.4v-6.18l.38.38c.19.19.5.19.69,0s.19-.5,0-.69Zm-6.18,6.91h-2.92v-3.83c0-.3.25-.55.55-.55h1.82c.3,0,.55.25.55.55v3.83Zm4.14-.43c0,.23-.19.43-.43.43h-2.74v-3.83c0-.84-.68-1.52-1.52-1.52h-1.82c-.84,0-1.52.68-1.52,1.52v3.83h-2.73c-.23,0-.43-.19-.43-.43v-7.16L6.88,1.35c.5-.5,1.31-.5,1.81,0l4.69,4.69v7.16Z" />
</svg>
