<svg viewBox="0 0 25 23" xmlns="http://www.w3.org/2000/svg">
	<path d="M16.2826 0.0871906H9.05302C4.50328 0.0188211 0.751532 3.48287 0.65625 7.82434V14.4904C0.739622 18.8432 4.49137 22.2959 9.04111 22.2275H16.2707C20.8204 22.3073 24.5721 18.8432 24.6555 14.4904V7.81294C24.6317 3.51706 20.9752 0.0530056 16.497 0.0757954C16.4255 0.0871903 16.354 0.0871906 16.2826 0.0871906ZM17.819 11.1972C17.9262 13.9434 15.6871 16.2566 12.8048 16.3591C9.93438 16.4617 7.51659 14.3194 7.40939 11.5619C7.3022 8.8043 9.54134 6.50253 12.4236 6.39997C12.4832 6.39997 12.5546 6.39997 12.6142 6.39997C15.425 6.343 17.7595 8.47385 17.819 11.163V11.1972ZM19.3673 6.39997C18.6527 6.38858 18.0929 5.81883 18.1048 5.13514C18.1168 4.45144 18.7123 3.91588 19.4269 3.92728C20.1415 3.93867 20.7013 4.50842 20.6894 5.19211C20.6775 5.85302 20.1177 6.38858 19.4269 6.39997H19.3673Z" />
</svg>
