<?xml version="1.0" encoding="UTF-8"?>
<svg id="Layer_2" data-name="Layer 2" xmlns="http://www.w3.org/2000/svg" viewBox="0 0 22.82 20.68">
  <defs>
    <style>
      .cls-1 {
        fill: #100;
      }
    </style>
  </defs>
  <g id="Layer_1-2" data-name="Layer 1">
    <path class="cls-1" d="M16.23,20.68h-5.36c-3.63,0-6.59-2.96-6.59-6.59s2.96-6.59,6.59-6.59h2.68c.39,0,.7.31.7.7s-.31.7-.7.7h-2.68c-2.86,0-5.19,2.33-5.19,5.19s2.33,5.19,5.19,5.19h5.36c2.86,0,5.19-2.33,5.19-5.19,0-1.2-.43-2.37-1.2-3.3-.25-.3-.21-.74.09-.99.3-.25.74-.21.99.09.98,1.18,1.52,2.67,1.52,4.2,0,3.63-2.96,6.59-6.59,6.59ZM11.95,13.18h-2.68c-.39,0-.7-.31-.7-.7s.31-.7.7-.7h2.68c2.86,0,5.19-2.33,5.19-5.19S14.81,1.4,11.95,1.4h-5.36C3.73,1.4,1.4,3.73,1.4,6.59c0,1.2.43,2.37,1.2,3.3.25.3.21.74-.09.99s-.74.21-.99-.09c-.98-1.18-1.52-2.67-1.52-4.2C0,2.96,2.96,0,6.59,0h5.36c3.63,0,6.59,2.96,6.59,6.59s-2.96,6.59-6.59,6.59Z"/>
  </g>
</svg>