<svg viewBox="0 0 25 25" xmlns="http://www.w3.org/2000/svg">
	<path d="M12.6578 0.229492C6.03242 0.229492 0.658203 5.60371 0.658203 12.2291C0.658203 18.8545 6.03242 24.2288 12.6578 24.2288C19.2833 24.2288 24.6575 18.8545 24.6575 12.2291C24.6575 5.60371 19.2833 0.229492 12.6578 0.229492ZM9.16639 18.366H6.24691V9.57181H9.16639V18.366ZM7.71261 8.36827H7.68877C6.77122 8.36827 6.0205 7.61755 6.03242 6.68808C6.03242 5.77054 6.78314 5.01981 7.71261 5.03173C8.63016 5.03173 9.38088 5.78245 9.36896 6.71192C9.35704 7.62947 8.61824 8.36827 7.71261 8.36827ZM19.7122 18.366H16.7928V13.6591C16.7928 12.4794 16.3638 11.6691 15.3152 11.6691C14.6359 11.6691 14.0401 12.098 13.8137 12.7415C13.7422 12.9679 13.7065 13.2182 13.7184 13.4565V18.366H10.7989C10.7989 18.366 10.8347 10.394 10.7989 9.57181H13.7184V10.8111C14.2546 9.86972 15.2675 9.32157 16.3519 9.35732C18.2704 9.35732 19.7122 10.6085 19.7122 13.3135V18.366Z" />
</svg>
