<svg viewBox="0 0 32 32" xmlns="http://www.w3.org/2000/svg">
	<path d="M31.7068 13.5268C31.1478 9.45299 28.9934 5.76803 25.7175 3.28261C22.4417 0.797187 18.3126 -0.285096 14.2388 0.273848C10.1649 0.832792 6.47994 2.98718 3.99452 6.26306C1.5091 9.53895 0.426818 13.668 0.985762 17.7419C1.44626 21.1137 2.99575 24.2427 5.39842 26.6528C7.80109 29.0629 10.9254 30.622 14.2958 31.0929C14.9854 31.1832 15.6802 31.2286 16.3758 31.2289C19.1859 31.2335 21.9434 30.4666 24.3478 29.0119C24.5165 28.9102 24.6636 28.7763 24.7806 28.6178C24.8976 28.4594 24.9822 28.2794 25.0297 28.0882C25.0771 27.897 25.0865 27.6983 25.0571 27.5035C25.0278 27.3087 24.9604 27.1216 24.8588 26.9529C24.7571 26.7841 24.6232 26.637 24.4648 26.52C24.3063 26.403 24.1263 26.3184 23.9351 26.2709C23.549 26.1751 23.1406 26.2366 22.7998 26.4419C21.0884 27.4691 19.156 28.0715 17.1641 28.1988C15.1722 28.3261 13.1787 27.9746 11.3505 27.1736C9.52235 26.3726 7.91254 25.1455 6.65578 23.5949C5.39902 22.0443 4.53186 20.2153 4.12683 18.2608C3.7218 16.3064 3.79069 14.2834 4.32772 12.361C4.86476 10.4387 5.85433 8.67285 7.21365 7.21131C8.57297 5.74977 10.2625 4.63499 12.141 3.96023C14.0194 3.28546 16.0321 3.07034 18.0108 3.33285C19.8486 3.5772 21.609 4.22732 23.1646 5.23608C24.7201 6.24485 26.0318 7.58701 27.0045 9.16531C27.9773 10.7436 28.5868 12.5185 28.7888 14.3615C28.9909 16.2044 28.7804 18.0693 28.1728 19.8209C28.0151 20.242 27.7302 20.6037 27.3577 20.8557C26.9851 21.1076 26.5434 21.2373 26.0938 21.2269C25.5012 21.2261 24.9332 20.9903 24.5143 20.5714C24.0953 20.1524 23.8596 19.5844 23.8588 18.9919V9.72685C23.8588 9.32902 23.7007 8.94749 23.4194 8.66619C23.1381 8.38488 22.7566 8.22685 22.3588 8.22685C21.9609 8.22685 21.5794 8.38488 21.2981 8.66619C21.0168 8.94749 20.8588 9.32902 20.8588 9.72685V9.74085C19.7216 8.88259 18.3635 8.36597 16.9435 8.25145C15.5234 8.13692 14.1001 8.42924 12.8401 9.09417C11.5801 9.75911 10.5356 10.7692 9.82876 12.0061C9.12193 13.2431 8.78203 14.6558 8.84884 16.0789C8.91565 17.502 9.38642 18.8767 10.206 20.042C11.0257 21.2073 12.1602 22.115 13.477 22.659C14.7937 23.2029 16.2382 23.3606 17.6412 23.1135C19.0443 22.8665 20.348 22.2249 21.3998 21.2639C21.8247 22.1489 22.4904 22.8963 23.3207 23.4204C24.1509 23.9445 25.112 24.224 26.0938 24.2269C27.167 24.2372 28.2169 23.9131 29.0975 23.2995C29.9781 22.6859 30.6458 21.8133 31.0078 20.8029C31.8161 18.4676 32.0558 15.9733 31.7068 13.5268ZM16.3588 20.2269C15.4687 20.2269 14.5987 19.9629 13.8587 19.4685C13.1187 18.974 12.5419 18.2712 12.2013 17.4489C11.8607 16.6267 11.7716 15.7219 11.9452 14.8489C12.1189 13.976 12.5474 13.1742 13.1768 12.5449C13.8061 11.9155 14.6079 11.4869 15.4809 11.3133C16.3538 11.1397 17.2586 11.2288 18.0808 11.5694C18.9031 11.91 19.6059 12.4868 20.1004 13.2268C20.5948 13.9668 20.8588 14.8368 20.8588 15.7268C20.8574 16.9199 20.3829 18.0637 19.5393 18.9074C18.6957 19.751 17.5518 20.2255 16.3588 20.2269Z" />
</svg>
