<svg viewBox="0 0 27 28" xmlns="http://www.w3.org/2000/svg">
	<path d="M24.8992 2.50928C23.7152 1.78794 22.2725 1.73317 21.0405 2.36784L18.0925 3.88118C17.7219 4.07185 17.2952 4.07185 16.9245 3.88118L11.3099 0.998535C10.7539 0.713202 10.1445 0.571871 9.53385 0.567871C9.52452 0.567871 9.51784 0.5625 9.5085 0.5625C9.49917 0.5625 9.49253 0.567871 9.48319 0.567871C8.87253 0.571871 8.26318 0.713202 7.70585 0.998535L3.10986 3.35986C1.2992 4.2892 0.173828 6.15189 0.173828 8.21989V21.7891C0.173828 23.2331 0.900505 24.5386 2.11784 25.2826C3.30184 26.0039 4.74319 26.0585 5.97652 25.4238L8.92452 23.9105C9.29519 23.7198 9.72186 23.7198 10.0925 23.9105L15.7072 26.7933C16.2659 27.08 16.8792 27.2239 17.4925 27.2266C17.4978 27.2266 17.5032 27.2292 17.5085 27.2292C17.5138 27.2292 17.5192 27.2266 17.5245 27.2266C18.1378 27.2239 18.7512 27.08 19.3099 26.7933L23.9058 24.432C25.7165 23.5026 26.8418 21.6399 26.8418 19.5719V6.0026C26.8432 4.5586 26.1165 3.25328 24.8992 2.50928ZM4.7605 23.0492C4.18316 23.3452 3.69385 23.1159 3.50985 23.0039C3.09385 22.7492 2.84318 22.2945 2.84318 21.7865V8.21712C2.84318 7.15312 3.4125 6.1998 4.32983 5.73047L8.17651 3.75456V21.3626C8.02051 21.4186 7.85783 21.4585 7.7085 21.5358L4.7605 23.0492ZM11.3112 21.5358C11.1619 21.4585 10.9992 21.42 10.8432 21.3626V3.75326L15.7085 6.25179C15.8578 6.32912 16.0205 6.3678 16.1765 6.42513V24.0345L11.3112 21.5358ZM24.1765 19.5719C24.1765 20.6359 23.6072 21.5893 22.6899 22.0586L18.8432 24.0345V6.42513C18.9992 6.36913 19.1619 6.32912 19.3112 6.25179L22.2592 4.73861C22.8352 4.44127 23.3258 4.67185 23.5098 4.78385C23.9258 5.03852 24.1765 5.49314 24.1765 6.00114V19.5719Z" />
</svg>
