<?xml version="1.0" encoding="UTF-8"?>
<svg id="Layer_2" data-name="Layer 2" xmlns="http://www.w3.org/2000/svg" viewBox="0 0 21.48 23.72">
  <g id="Layer_1-2" data-name="Layer 1">
    <path d="M11.87,23.72h-2.23c-2.61,0-4.05-1.44-4.05-4.05v-.42h-1.54c-2.61,0-4.05-1.44-4.05-4.05v-5.58c0-2.61,1.44-4.05,4.05-4.05h.69v-1.53C4.74,1.29,6.03,0,8.79,0h3.91c2.76,0,4.05,1.29,4.05,4.05v1.53h.69c2.61,0,4.05,1.44,4.05,4.05v5.58c0,2.61-1.44,4.05-4.05,4.05h-1.52v.42c0,2.61-1.44,4.05-4.05,4.05ZM6.99,15.91v3.76c0,1.86.79,2.65,2.65,2.65h2.23c1.86,0,2.65-.79,2.65-2.65v-1.01s0-.07,0-.1v-2.65h-7.52ZM15.91,17.85h1.52c1.86,0,2.65-.79,2.65-2.65v-5.58c0-1.86-.79-2.65-2.65-2.65H4.05c-1.86,0-2.65.79-2.65,2.65v5.58c0,1.86.79,2.65,2.65,2.65h1.53v-1.95h-.41c-.39,0-.7-.31-.7-.7s.31-.7.7-.7h11.16c.39,0,.7.31.7.7s-.31.7-.7.7h-.41v1.95ZM6.14,5.58h9.2v-1.53c0-1.98-.67-2.65-2.65-2.65h-3.91c-1.98,0-2.65.67-2.65,2.65v1.53ZM8.52,11.44h-3.35c-.39,0-.7-.31-.7-.7s.31-.7.7-.7h3.35c.39,0,.7.31.7.7s-.31.7-.7.7Z"/>
  </g>
</svg>