<svg viewBox="0 0 28 34" xmlns="http://www.w3.org/2000/svg">
	<path d="M11.0648 20.157C10.7719 19.8641 10.2971 19.8641 10.0042 20.157C9.71128 20.4499 9.71128 20.9248 10.0042 21.2177L11.0648 20.157ZM14.1178 24.2707L13.5875 24.801C13.7282 24.9417 13.9189 25.0207 14.1178 25.0207C14.3168 25.0207 14.5075 24.9417 14.6482 24.801L14.1178 24.2707ZM18.2315 21.2177C18.5244 20.9248 18.5244 20.4499 18.2315 20.157C17.9386 19.8641 17.4637 19.8641 17.1708 20.157L18.2315 21.2177ZM2.32617 13.5207C2.32617 7.00832 7.60549 1.729 14.1178 1.729V0.229004C6.77706 0.229004 0.826172 6.17989 0.826172 13.5207H2.32617ZM14.1178 1.729C20.6302 1.729 25.9095 7.00832 25.9095 13.5207H27.4095C27.4095 6.17989 21.4586 0.229004 14.1178 0.229004V1.729ZM25.9095 13.5207V20.6873H27.4095V13.5207H25.9095ZM25.9095 20.6873C25.9095 27.1997 20.6302 32.479 14.1178 32.479V33.979C21.4586 33.979 27.4095 28.0281 27.4095 20.6873H25.9095ZM14.1178 32.479C7.60549 32.479 2.32617 27.1997 2.32617 20.6873H0.826172C0.826172 28.0281 6.77706 33.979 14.1178 33.979V32.479ZM2.32617 20.6873V13.5207H0.826172V20.6873H2.32617ZM10.0042 21.2177L13.5875 24.801L14.6482 23.7403L11.0648 20.157L10.0042 21.2177ZM14.6482 24.801L18.2315 21.2177L17.1708 20.157L13.5875 23.7403L14.6482 24.801Z" />
</svg>
