<?xml version="1.0" encoding="UTF-8"?>
<svg id="Layer_2" data-name="Layer 2" xmlns="http://www.w3.org/2000/svg" viewBox="0 0 19.5 19.5">
  <g id="Layer_1-2" data-name="Layer 1">
    <path d="M18.75,19.5c-.19,0-.38-.07-.53-.22l-3.84-3.84c-1.52,1.28-3.49,2.06-5.63,2.06C3.93,17.5,0,13.58,0,8.75S3.93,0,8.75,0s8.75,3.92,8.75,8.75c0,2.14-.77,4.11-2.06,5.63l3.84,3.84c.29.29.29.77,0,1.06-.15.15-.34.22-.53.22ZM8.75,1.5c-4,0-7.25,3.25-7.25,7.25s3.25,7.25,7.25,7.25c1.96,0,3.75-.79,5.06-2.06.02-.03.04-.05.06-.07s.05-.04.07-.06c1.27-1.31,2.06-3.09,2.06-5.06,0-4-3.25-7.25-7.25-7.25Z"/>
  </g>
</svg>