<svg viewBox="0 0 23 23" xmlns="http://www.w3.org/2000/svg">
	<path d="M11.2625 0C5.05248 0 7.26784e-05 5.05241 7.26784e-05 11.2624C7.26784e-05 13.2015 0.501004 15.1083 1.45096 16.7908L0.0181904 21.9029C-0.0288178 22.0709 0.0167215 22.2511 0.138159 22.3759C0.231686 22.4724 0.359 22.5248 0.489742 22.5248C0.528915 22.5248 0.568579 22.5199 0.607263 22.5106L5.9427 21.189C7.57183 22.0635 9.40662 22.5248 11.2625 22.5248C17.4725 22.5248 22.5249 17.4724 22.5249 11.2624C22.5249 5.05241 17.4725 0 11.2625 0ZM16.9279 15.2365C16.687 15.9035 15.5314 16.5121 14.9761 16.5939C14.4776 16.6669 13.8469 16.6982 13.1545 16.4808C12.7349 16.3486 12.1963 16.1733 11.5063 15.879C8.60601 14.6421 6.71197 11.7584 6.56703 11.5679C6.42257 11.3775 5.38643 10.0201 5.38643 8.61524C5.38643 7.21038 6.13318 6.51946 6.39858 6.23349C6.66398 5.94752 6.97688 5.87603 7.16981 5.87603C7.36274 5.87603 7.55518 5.87848 7.72412 5.88631C7.90187 5.89513 8.14034 5.81923 8.37489 6.37647C8.6158 6.94841 9.1941 8.35327 9.2656 8.49674C9.33807 8.63972 9.38605 8.8067 9.29008 8.99718C9.1941 9.18766 9.14612 9.30665 9.00117 9.47363C8.85623 9.64061 8.69758 9.84578 8.56733 9.97407C8.42238 10.1166 8.27206 10.2708 8.4405 10.5568C8.60895 10.8427 9.18921 11.7775 10.0491 12.5346C11.1533 13.507 12.0851 13.8087 12.374 13.9517C12.6629 14.0946 12.8319 14.0706 13.0003 13.8802C13.1687 13.6892 13.7231 13.0463 13.9155 12.7608C14.1079 12.4753 14.3009 12.5223 14.5663 12.6178C14.8317 12.7128 16.2532 13.4032 16.5421 13.5462C16.831 13.6892 17.0239 13.7607 17.0964 13.8797C17.1689 13.9982 17.1689 14.5701 16.9279 15.2365Z" />
</svg>
