<svg xmlns="http://www.w3.org/2000/svg" viewBox="0 0 21.5 21.5">
	<path d="M10.75,21.5h-.32c-1.58-.06-3.08-.43-4.47-1.13-.2-.1-.43-.12-.62-.08l-2.23,.6c-.71,.19-1.45,0-1.98-.53-.52-.52-.72-1.26-.53-1.98l.6-2.23c.07-.25,0-.47-.08-.62-.74-1.51-1.12-3.12-1.12-4.79C0,4.82,4.82,0,10.75,0s10.75,4.82,10.75,10.75-4.82,10.75-10.75,10.75Zm-5.23-2.73c.36,0,.74,.08,1.09,.25,1.29,.64,2.67,.97,4.13,.97h.32c4.96-.16,8.94-4.24,8.94-9.24S15.85,1.5,10.75,1.5,1.5,5.65,1.5,10.75c0,1.44,.32,2.82,.96,4.12,.27,.54,.34,1.13,.18,1.68l-.6,2.22c-.07,.28,.08,.46,.14,.53,.07,.07,.25,.21,.53,.14l2.23-.6c.19-.05,.38-.07,.58-.07Z" />
	<path d="M12.42,12.17l-.28,.27s-.66,.63-2.47-1.1c-1.81-1.73-1.14-2.36-1.14-2.36l.18-.17c.43-.41,.47-1.08,.1-1.56l-.77-.99c-.47-.6-1.37-.68-1.9-.17l-.96,.92c-.26,.25-.44,.58-.42,.95,.06,.93,.49,2.94,2.94,5.28,2.6,2.48,5.03,2.58,6.03,2.49,.32-.03,.59-.18,.81-.39l.87-.83c.59-.56,.42-1.52-.33-1.91l-1.17-.61c-.49-.26-1.09-.18-1.48,.19h-.01Z" />
</svg>
