<svg viewBox="0 0 25 25" xmlns="http://www.w3.org/2000/svg">
	<path d="M11.336 14.2091L14.7799 12.2245L11.336 10.2394V14.2091Z" />
	<path d="M12.6518 0.229492C6.02724 0.229492 0.646265 5.61048 0.658223 12.235C0.658223 18.8595 6.0392 24.2408 12.6637 24.2288C19.2883 24.2288 24.6572 18.8598 24.6572 12.2233C24.6572 5.5988 19.2763 0.229492 12.6518 0.229492ZM19.0013 15.4276C18.8458 16.0016 18.4034 16.444 17.8294 16.5994C16.1075 16.8027 14.3856 16.8864 12.6518 16.8744C10.9179 16.8983 9.19599 16.803 7.47409 16.5877C6.90012 16.4323 6.45771 15.9899 6.30226 15.4159C6.11094 14.3637 6.02726 13.2992 6.02726 12.235C6.0153 11.1708 6.11094 10.1069 6.30226 9.05467C6.45771 8.4807 6.90012 8.03771 7.47409 7.88226C9.19599 7.67898 10.9179 7.5953 12.6518 7.60726C14.3856 7.58334 16.1075 7.67929 17.8294 7.89452C18.4034 8.04997 18.8458 8.49238 19.0013 9.06635C19.1926 10.1186 19.2882 11.1947 19.2763 12.2589C19.2763 13.3112 19.1806 14.3753 19.0013 15.4276Z" />
</svg>
